<svg xmlns="http://www.w3.org/2000/svg" viewBox="0 0 32 32" fill="none" stroke="#b3372b" stroke-width="1.6" stroke-linecap="round" stroke-linejoin="round">
  <path d="M6 17h20M5 17c0-6 3-9 11-9s11 3 11 9" fill="#f5c518" />
  <path d="M5 17c-.5 0-1 .5-1 1.5S4.5 20 5 20h22c.5 0 1-.5 1-1.5s-.5-1.5-1-1.5" fill="#e8c39e" />
  <path d="M6 20l-1 3c-.2.6.2 1 .8 1h20.4c.6 0 1-.4.8-1l-1-3" fill="#7a4a2d" />
  <circle cx="11" cy="14" r="0.6" fill="#b3372b" stroke="none" />
  <circle cx="16" cy="12.5" r="0.6" fill="#b3372b" stroke="none" />
  <circle cx="21" cy="14" r="0.6" fill="#b3372b" stroke="none" />
</svg>
